<svg width="16" height="16" xmlns="http://www.w3.org/2000/svg" viewbox="0 0 16 16"><g fill="none" fill-rule="evenodd"><path d="M0 1.777C0 .796.796 0 1.777 0h12.446C15.204 0 16 .796 16 1.777v12.446c0 .981-.796 1.777-1.777 1.777H1.777A1.778 1.778 0 0 1 0 14.223V1.777z" fill="#2684FF"/><path d="M7.933 7h4.134c.515 0 .933.418.933.933v4.134a.933.933 0 0 1-.933.933H7.933A.933.933 0 0 1 7 12.067V7.933C7 7.418 7.418 7 7.933 7z" fill="#FFF"/><path d="M4.5 4.5v3h3v-3h-3zM3.933 3h4.134c.515 0 .933.418.933.933v4.134A.933.933 0 0 1 8.067 9H3.933A.933.933 0 0 1 3 8.067V3.933C3 3.418 3.418 3 3.933 3z" fill="#FFF" fill-rule="nonzero"/></g></svg>