<svg width="16" height="16" xmlns="http://www.w3.org/2000/svg" viewbox="0 0 16 16"><g fill="none" fill-rule="evenodd"><path d="M0 2.002A2 2 0 0 1 2.002 0h11.996A2 2 0 0 1 16 2.002v11.996A2 2 0 0 1 13.998 16H2.002A2 2 0 0 1 0 13.998V2.002z" fill="#2684FF"/><path d="M6.42 11.654a.798.798 0 0 1-.566-.234L3.278 8.844a.958.958 0 0 1 0-1.35l2.51-2.51A.802.802 0 0 1 6.92 6.116L4.866 8.169l2.12 2.12a.8.8 0 0 1-.566 1.365M9.657 11.654a.8.8 0 0 1-.566-1.365l2.12-2.12-2.053-2.054a.8.8 0 0 1 1.13-1.13l2.51 2.51c.18.177.28.416.28.672a.946.946 0 0 1-.28.677l-2.575 2.576a.796.796 0 0 1-.566.234z" fill="#FFF"/></g></svg>