<svg width="16" height="16" xmlns="http://www.w3.org/2000/svg" viewbox="0 0 16 16"><g fill="none" fill-rule="evenodd"><path d="M0 2.002A2 2 0 0 1 2.002 0h11.996A2 2 0 0 1 16 2.002v11.996A2 2 0 0 1 13.998 16H2.002A2 2 0 0 1 0 13.998V2.002z" fill="#36B37E"/><path d="M9 12.09c0 .503-.448.91-1 .91s-1-.407-1-.91V3.91C7 3.406 7.448 3 8 3s1 .407 1 .91v8.18z" fill="#FFF" fill-rule="nonzero"/><path d="M4.957 8.207a1 1 0 0 1-1.414-1.414l3.75-3.75a1 1 0 0 1 1.414 0l3.75 3.75a1 1 0 1 1-1.414 1.414L8 5.164 4.957 8.207z" fill="#FFF" fill-rule="nonzero"/></g></svg>