<svg width="16" height="16" xmlns="http://www.w3.org/2000/svg" viewbox="0 0 16 16"><g fill="none" fill-rule="evenodd"><path d="M0 2.002A2 2 0 0 1 2.002 0h11.996A2 2 0 0 1 16 2.002v11.996A2 2 0 0 1 13.998 16H2.002A2 2 0 0 1 0 13.998V2.002z" fill="#FF991F"/><path d="M8.082 3a3.333 3.333 0 0 1 3.334 3.333c0 2.232-1.667 2.151-1.667 3.513v.237c0 .23-.187.417-.417.417H6.696a.417.417 0 0 1-.417-.417v-.237c0-1.362-1.666-1.281-1.666-3.513C4.613 4.493 6.24 3 8.083 3zM6.774 11.5H9.23a.5.5 0 0 1 .48.642c-.169.572-.737.858-1.705.858-.964 0-1.534-.284-1.71-.852a.5.5 0 0 1 .478-.648z" fill="#FFF"/></g></svg>